# Blender 4.2.0
# www.blender.org
mtllib Tree.mtl
o Cylinder
v 0.000000 -1.000000 1.000000
v 0.000000 19.935162 0.143190
v -0.866025 -1.000000 0.500000
v -0.124006 19.935162 0.071595
v -0.866025 -1.000000 -0.500000
v -0.124006 19.935162 -0.071595
v 0.000000 -1.000000 -1.000000
v 0.000000 19.935162 -0.143190
v 0.866025 -1.000000 -0.500000
v 0.124006 19.935162 -0.071595
v 0.866025 -1.000000 0.500000
v 0.124006 19.935162 0.071595
v 0.000000 20.231853 0.019260
v -0.016680 20.231853 0.009630
v -0.016680 20.231853 -0.009630
v 0.000000 20.231853 -0.019260
v 0.016680 20.231853 -0.009630
v 0.016680 20.231853 0.009630
v 5.000000 5.672438 0.000000
v -5.000000 5.672438 0.000000
v 5.000000 21.872568 -0.000000
v -5.000000 21.872568 -0.000000
v -0.490015 5.672438 4.975931
v 0.490014 5.672438 -4.975931
v -0.490014 21.872568 4.975931
v 0.490015 21.872568 -4.975931
v -4.047587 5.672438 -2.935480
v 4.047587 5.672438 2.935480
v -4.047587 21.872568 -2.935480
v 4.047587 21.872568 2.935480
v 4.562904 5.672438 -2.044482
v -4.562904 5.672438 2.044482
v 4.562904 21.872568 -2.044482
v -4.562904 21.872568 2.044482
vn -0.4997 0.0354 0.8655
vn -0.9994 0.0354 -0.0000
vn -0.4997 0.0354 -0.8655
vn 0.4997 0.0354 -0.8655
vn 0.9994 0.0354 -0.0000
vn 0.4997 0.0354 0.8655
vn -0.0000 -1.0000 -0.0000
vn -0.4702 0.3402 -0.8144
vn 0.4702 0.3402 0.8144
vn 0.4702 0.3402 -0.8144
vn -0.9404 0.3402 -0.0000
vn 0.9404 0.3402 -0.0000
vn -0.4702 0.3402 0.8144
vn -0.0000 1.0000 -0.0000
vn -0.0000 -0.0000 -1.0000
vn 0.9952 -0.0000 0.0980
vn -0.5871 -0.0000 0.8095
vn -0.4089 -0.0000 -0.9126
vt 0.881411 0.004484
vt 0.805139 0.964424
vt 0.790569 0.964424
vt 0.855705 0.004484
vt 0.761431 0.964424
vt 0.804295 0.004484
vt 0.746861 0.964424
vt 0.778589 0.004484
vt 0.774041 0.994812
vt 0.772080 0.994812
vt 0.777960 0.994812
vt 0.779920 0.994812
vt 0.000000 0.000000
vt 0.510000 0.000000
vt 0.510000 0.948000
vt 0.000000 0.948000
vt 0.500000 0.000000
vt 0.500000 0.938000
vt 0.000000 0.938000
vt 0.514000 0.000000
vt 0.514000 0.946000
vt 0.000000 0.946000
vt 0.508000 0.000000
vt 0.508000 0.944000
vt 0.000000 0.944000
s 0
usemtl Material
f 1/1/1 2/2/1 4/3/1 3/4/1
f 3/4/2 4/3/2 6/5/2 5/6/2
f 5/6/3 6/5/3 8/7/3 7/8/3
f 7/8/4 8/7/4 10/5/4 9/6/4
f 9/6/5 10/5/5 12/3/5 11/4/5
f 11/4/6 12/3/6 2/2/6 1/1/6
f 1/1/7 3/4/7 5/6/7 7/8/7 9/6/7 11/4/7
f 8/7/8 6/5/8 15/9/8 16/10/8
f 2/2/9 12/3/9 18/11/9 13/12/9
f 10/5/10 8/7/10 16/10/10 17/9/10
f 6/5/11 4/3/11 14/11/11 15/9/11
f 12/3/12 10/5/12 17/9/12 18/11/12
f 4/3/13 2/2/13 13/12/13 14/11/13
f 14/11/14 13/12/14 18/11/14 17/9/14 16/10/14 15/9/14
f 19/13/15 20/14/15 22/15/15 21/16/15
f 23/13/16 24/17/16 26/18/16 25/19/16
f 27/13/17 28/20/17 30/21/17 29/22/17
f 31/13/18 32/23/18 34/24/18 33/25/18
